<svg xmlns="http://www.w3.org/2000/svg" fill="none" viewBox="0 0 33.6 27.439999999999998" style="max-height: 500px" width="33.6" height="27.439999999999998">
<path fill="#01A48E" d="M16.0645 15.2507C15.5269 15.3638 14.9829 15.4266 14.4454 15.4581C13.8755 15.4895 13.448 14.9616 13.597 14.4274C13.597 14.4274 16.4142 2.74393 10.3911 1.17902C6.85497 0.261439 2.71004 4.12658 0.767101 11.1655C0.741195 11.2535 -1.34422 19.0969 1.47303 23.5466C2.3344 24.9041 3.83047 25.9097 5.68273 26.0856C6.1037 26.1233 6.50524 26.0982 6.90678 26.0479C6.90678 26.0479 6.91974 26.0605 6.92621 26.0605C12.5024 25.3 15.65 18.104 16.5308 15.7849C16.6409 15.4895 16.3818 15.1815 16.0645 15.2507Z"/>
<path fill="#01A48E" d="M16.9649 12.7495C17.5024 12.6363 18.0464 12.5735 18.584 12.5421C19.1539 12.5106 19.5813 13.0386 19.4324 13.5728C19.4324 13.5728 16.6151 25.2562 22.6382 26.8211C26.1744 27.7387 30.3128 23.8798 32.2622 16.8346C32.2882 16.7466 34.3736 8.90317 31.5563 4.45354C30.6949 3.09603 29.1989 2.09046 27.3466 1.91449C26.9256 1.87678 26.7423 1.91387 26.5001 1.91409C26.5001 1.91409 26.1096 1.93963 26.1031 1.93963C20.5269 2.70009 17.3793 9.89617 16.4985 12.2153C16.3884 12.5106 16.6475 12.8186 16.9649 12.7495Z"/>
<path fill="white" d="M59.2831 10.0059V22.9598H63.1611V13.7691C63.1611 11.6905 61.4251 10.0059 59.2831 10.0059Z"/>
<path fill="white" d="M63.1541 5.04041H59.2902V8.53871H63.1541V5.04041Z"/>
<path fill="white" d="M99.4351 8.7085C97.6081 8.7085 95.9771 9.58477 94.9971 10.9365C94.1641 9.53722 92.6591 8.7085 90.8321 8.7085C89.1451 8.7085 87.5701 9.51684 86.5551 10.7667C86.5551 9.63232 85.6171 8.7085 84.4481 8.7085H83.1181V22.9598H86.9961V15.4334C86.9961 13.2529 88.0461 12.0166 89.7961 12.0166C91.1821 12.0166 91.9171 12.9948 91.9171 14.856V22.9666H95.6971V15.4402C95.6971 13.2597 96.7261 12.0234 98.4551 12.0234C99.8621 12.0234 100.611 13.0016 100.611 14.8628V22.9734H104.489V14.2446C104.489 10.9841 102.403 8.72208 99.4351 8.72208V8.7085Z"/>
<path fill="white" d="M119.21 8.64732V10.3048C117.852 9.12961 116.011 8.50467 113.946 8.67449C110.18 8.98696 107.247 12.2136 107.296 15.8817C107.345 19.937 110.453 22.9598 114.618 22.9598C116.375 22.9598 117.943 22.362 119.14 21.3499V22.9666H122.423V11.772C122.423 10.0466 120.981 8.65411 119.21 8.65411V8.64732ZM114.926 19.4955C112.735 19.4955 111.118 17.9059 111.118 15.7798C111.118 13.6536 112.728 12.0641 114.926 12.0641C117.124 12.0641 118.727 13.6468 118.727 15.7798C118.727 17.9127 117.117 19.4955 114.926 19.4955Z"/>
<path fill="white" d="M78.6101 15.0123C79.5901 13.8779 80.0731 12.4174 80.0731 10.9366V8.70853H76.1041V10.9841C76.1041 11.5208 75.9571 12.0642 75.6071 12.4853C75.1591 13.0288 74.5081 13.3344 73.8011 13.3344H71.1061V8.80363C71.1061 6.72502 69.3701 5.04041 67.2281 5.04041V22.9531H71.1061V14.7609L76.5591 22.9531H81.2841L76.9161 16.3844C77.5461 16.0312 78.1201 15.5693 78.6101 15.0055V15.0123Z"/>
<path fill="white" d="M132.825 8.70853C131.691 8.70853 130.627 8.97345 129.675 9.42177V8.94628C129.675 6.79295 127.876 5.04041 125.65 5.04041V15.6508C125.65 15.6508 125.65 15.6644 125.65 15.6712V22.9599H129.675V15.6712C129.675 13.9865 131.089 12.6144 132.825 12.6144C134.561 12.6144 135.975 13.9865 135.975 15.6712V22.9599H140V15.6712C140 11.8332 136.78 8.70853 132.825 8.70853Z"/>
<path fill="white" d="M51.3872 5.04036V9.51004C51.3872 10.6241 51.8842 11.6837 52.7522 12.4106H45.0872V8.93944C45.0872 6.78612 43.2882 5.03357 41.0622 5.03357V22.9462H45.0872V18.103C45.0872 16.9618 44.5762 15.8749 43.6872 15.1277H45.0872H51.3872V22.9462H55.4122V8.94623C55.4122 6.79291 53.6132 5.04036 51.3872 5.04036Z"/>
</svg>